<?xml version="1.0" encoding="utf-8"?>
<!-- Generator: Adobe Illustrator 24.0.1, SVG Export Plug-In . SVG Version: 6.00 Build 0)  -->
<svg version="1.1" xmlns="http://www.w3.org/2000/svg" xmlns:xlink="http://www.w3.org/1999/xlink" x="0px" y="0px"
	 viewBox="0 0 1342 380" style="enable-background:new 0 0 1342 380;" xml:space="preserve">
<style type="text/css">
	.st0{fill:none;stroke:#231F20;stroke-width:0.3;}
	.st1{display:none;}
	.st2{display:inline;}
	.st3{fill-rule:evenodd;clip-rule:evenodd;fill:none;}
	.st4{fill:#E16B26;}
	.st5{font-family:'MyanmarText-Bold';}
	.st6{font-size:30px;}
	.st7{font-family:'SpaceBT-Bold';}
	.st8{font-size:120px;}
	.st9{letter-spacing:6;}
	.st10{fill:#CB202A;}
	.st11{fill:#FAAD1C;}
	.st12{fill:#4643CD;}
	.st13{fill:#00828D;}
	.st14{fill:#FAB315;}
	.st15{fill:#FCD034;}
	.st16{fill:#00A4C3;}
	.st17{fill:#F4802B;}
</style>
<symbol  id="Deleted_Symbol" viewBox="-30.1 -12.21 60.2 24.42">
	<line class="st0" x1="30.01" y1="6.21" x2="28.01" y2="4.71"/>
	<line class="st0" x1="16.84" y1="-4.29" x2="12.59" y2="-3.54"/>
	<line class="st0" x1="26.34" y1="1.13" x2="23.34" y2="1.13"/>
	<line class="st0" x1="21.06" y1="-7.38" x2="22.17" y2="-4.42"/>
	<line class="st0" x1="4.58" y1="9.57" x2="2.93" y2="12.13"/>
	<line class="st0" x1="-9.87" y1="-10.84" x2="-8.01" y2="-8.16"/>
	<line class="st0" x1="18.76" y1="5.8" x2="16.76" y2="2.55"/>
	<line class="st0" x1="-29.99" y1="-1.12" x2="-27.74" y2="1.38"/>
	<line class="st0" x1="-20.49" y1="-2.29" x2="-16.49" y2="0.21"/>
	<line class="st0" x1="-21.82" y1="-5.95" x2="-23.82" y2="-4.7"/>
	<line class="st0" x1="-7.12" y1="4.84" x2="-9.87" y2="7.09"/>
	<line class="st0" x1="5.09" y1="-4.87" x2="3.09" y2="-3.62"/>
	<line class="st0" x1="-6.32" y1="-5.47" x2="-3.27" y2="-5.6"/>
	<line class="st0" x1="-4.07" y1="-0.26" x2="-1.68" y2="-2.08"/>
	<line class="st0" x1="3.07" y1="3.73" x2="4.19" y2="0.67"/>
	<line class="st0" x1="-2.41" y1="8.46" x2="-5.66" y2="9.46"/>
	<line class="st0" x1="11.97" y1="2.09" x2="9.22" y2="3.84"/>
	<line class="st0" x1="11.84" y1="7.46" x2="9.84" y2="5.96"/>
	<line class="st0" x1="-20.24" y1="6.71" x2="-19.74" y2="3.46"/>
	<line class="st0" x1="-12.24" y1="0.21" x2="-8.74" y2="0.96"/>
	<line class="st0" x1="0.34" y1="-12.21" x2="0.45" y2="-9.21"/>
	<line class="st0" x1="-15.7" y1="-7.61" x2="-17.12" y2="-5.56"/>
</symbol>
<g id="Option_1" class="st1">
	<g id="Rulers">
	</g>
	<g id="Text" class="st2">
		<rect x="433" y="210.43" class="st3" width="600" height="42"/>
		<text transform="matrix(1 0 0 1 545.9248 232.6348)" class="st4 st5 st6">Experience the Excellence!</text>
		<rect x="389" y="55.47" class="st3" width="1148" height="94.7"/>
		<text transform="matrix(1 0 0 1 509.9238 117.145)" class="st7 st8 st9">BUZZYBRAINS</text>
	</g>
	<g id="Shape_3_" class="st2">
		<path class="st10" d="M311.33,358.81c-30.93,75.16-96.33-138.73-85.7-199.83c8.51-48.91,122.32-176.62,122.32-176.62
			S347.58,270.7,311.33,358.81z"/>
		<path class="st11" d="M336.18-21.94c54.14-7.24-86.47,140.99-144.58,163.8c-45.88,18-220.8,7.35-220.8,7.35
			S195.82-3.16,336.18-21.94z"/>
		<path class="st12" d="M-30.66,165.11c-34.82-39.73,160.96-19.59,210.57,17.74c40.18,30.25,111.42,190.78,111.42,190.78
			S16.08,218.44-30.66,165.11z"/>
	</g>
</g>
<g id="Layer_6">
	<g>
		<path d="M428.68,295.83h-30.5v-50.86h29.33v9.33h-17.88v11.31h16.63v9.29h-16.63v11.63h19.05V295.83z"/>
		<path d="M471.18,259.51l-11.99,17.59l11.92,18.73H458.2l-5.25-9.79c-0.43-0.78-0.93-1.88-1.52-3.3h-0.14
			c-0.35,0.99-0.84,2.06-1.46,3.19l-5.28,9.9h-12.88l12.27-18.09l-11.52-18.23h12.98l5.18,10.18c0.69,1.35,1.17,2.48,1.45,3.4h0.14
			c0.38-1.11,0.89-2.27,1.53-3.48l5.28-10.11H471.18z"/>
		<path d="M487.93,291.61h-0.14v20.93h-11.21v-53.02h11.21v5.46h0.14c2.77-4.23,6.66-6.35,11.67-6.35c4.71,0,8.34,1.61,10.91,4.84
			c2.56,3.23,3.85,7.62,3.85,13.18c0,6.05-1.5,10.91-4.49,14.58c-2.99,3.66-6.97,5.5-11.94,5.5
			C493.56,296.72,490.22,295.01,487.93,291.61z M487.61,276.71v2.91c0,2.51,0.66,4.55,1.99,6.14c1.32,1.58,3.06,2.38,5.21,2.38
			c2.55,0,4.53-0.99,5.94-2.96c1.41-1.97,2.11-4.77,2.11-8.39c0-6.38-2.48-9.58-7.45-9.58c-2.29,0-4.17,0.87-5.62,2.61
			C488.34,271.55,487.61,273.85,487.61,276.71z"/>
		<path d="M554.62,280.86h-23.69c0.38,5.27,3.7,7.91,9.97,7.91c4,0,7.51-0.95,10.53-2.84v8.09c-3.36,1.8-7.72,2.7-13.09,2.7
			c-5.86,0-10.42-1.62-13.65-4.88c-3.24-3.25-4.86-7.78-4.86-13.6c0-6.03,1.75-10.81,5.25-14.33c3.5-3.52,7.8-5.28,12.91-5.28
			c5.3,0,9.39,1.57,12.29,4.72c2.9,3.14,4.35,7.41,4.35,12.8V280.86z M544.22,273.98c0-5.2-2.1-7.8-6.31-7.8
			c-1.8,0-3.35,0.74-4.67,2.23c-1.31,1.49-2.11,3.35-2.39,5.57H544.22z"/>
		<path d="M585.34,269.62c-1.35-0.73-2.92-1.1-4.72-1.1c-2.44,0-4.34,0.89-5.71,2.68c-1.37,1.79-2.06,4.22-2.06,7.29v17.34h-11.21
			v-36.32h11.21v6.74H573c1.77-4.92,4.97-7.38,9.58-7.38c1.18,0,2.1,0.14,2.77,0.43V269.62z"/>
		<path d="M596.59,253.77c-1.89,0-3.44-0.56-4.65-1.68c-1.21-1.12-1.81-2.5-1.81-4.13c0-1.68,0.6-3.05,1.81-4.11
			c1.21-1.06,2.75-1.6,4.65-1.6c1.92,0,3.47,0.53,4.66,1.6c1.2,1.06,1.79,2.44,1.79,4.11c0,1.7-0.6,3.1-1.79,4.19
			C600.06,253.22,598.5,253.77,596.59,253.77z M602.12,295.83h-11.21v-36.32h11.21V295.83z"/>
		<path d="M644.55,280.86h-23.69c0.38,5.27,3.7,7.91,9.96,7.91c4,0,7.51-0.95,10.54-2.84v8.09c-3.36,1.8-7.72,2.7-13.09,2.7
			c-5.86,0-10.41-1.62-13.65-4.88c-3.24-3.25-4.86-7.78-4.86-13.6c0-6.03,1.75-10.81,5.25-14.33c3.5-3.52,7.8-5.28,12.91-5.28
			c5.3,0,9.39,1.57,12.29,4.72c2.9,3.14,4.35,7.41,4.35,12.8V280.86z M634.16,273.98c0-5.2-2.1-7.8-6.31-7.8
			c-1.8,0-3.35,0.74-4.66,2.23c-1.31,1.49-2.11,3.35-2.39,5.57H634.16z"/>
		<path d="M686.65,295.83h-11.17v-20.18c0-5.63-2.01-8.44-6.03-8.44c-1.94,0-3.53,0.74-4.79,2.23c-1.25,1.49-1.88,3.38-1.88,5.67
			v20.71h-11.21v-36.32h11.21v5.75h0.14c2.67-4.42,6.56-6.63,11.67-6.63c8.04,0,12.06,4.99,12.06,14.97V295.83z"/>
		<path d="M723.41,294.52c-2.53,1.47-6.18,2.2-10.96,2.2c-5.58,0-10.1-1.69-13.55-5.07c-3.45-3.38-5.18-7.74-5.18-13.09
			c0-6.17,1.85-11.03,5.55-14.6c3.7-3.56,8.65-5.34,14.84-5.34c4.28,0,7.38,0.57,9.29,1.7v9.5c-2.34-1.75-4.95-2.62-7.84-2.62
			c-3.22,0-5.76,0.94-7.64,2.82c-1.88,1.88-2.82,4.47-2.82,7.78c0,3.22,0.9,5.74,2.7,7.57c1.8,1.83,4.27,2.75,7.41,2.75
			c2.79,0,5.52-0.87,8.19-2.62V294.52z"/>
		<path d="M763.74,280.86h-23.69c0.38,5.27,3.7,7.91,9.97,7.91c4,0,7.5-0.95,10.53-2.84v8.09c-3.36,1.8-7.72,2.7-13.08,2.7
			c-5.86,0-10.42-1.62-13.66-4.88c-3.24-3.25-4.86-7.78-4.86-13.6c0-6.03,1.75-10.81,5.25-14.33c3.5-3.52,7.8-5.28,12.91-5.28
			c5.3,0,9.39,1.57,12.29,4.72c2.9,3.14,4.34,7.41,4.34,12.8V280.86z M753.35,273.98c0-5.2-2.1-7.8-6.31-7.8
			c-1.8,0-3.35,0.74-4.67,2.23c-1.31,1.49-2.11,3.35-2.4,5.57H753.35z"/>
		<path d="M813.13,295.4c-1.66,0.87-4.15,1.31-7.49,1.31c-7.9,0-11.85-4.1-11.85-12.31v-16.63h-5.89v-8.26h5.89v-7.84l11.17-3.19
			v11.03h8.16v8.26h-8.16v14.68c0,3.78,1.5,5.67,4.5,5.67c1.18,0,2.4-0.34,3.66-1.03V295.4z"/>
		<path d="M854.67,295.83h-11.17v-20.64c0-5.32-1.94-7.98-5.82-7.98c-1.99,0-3.59,0.74-4.82,2.23s-1.84,3.38-1.84,5.67v20.71H819.8
			v-53.77h11.21v22.84h0.14c2.74-4.19,6.47-6.28,11.17-6.28c8.23,0,12.34,4.97,12.34,14.9V295.83z"/>
		<path d="M896.53,280.86h-23.69c0.38,5.27,3.7,7.91,9.97,7.91c4,0,7.51-0.95,10.53-2.84v8.09c-3.36,1.8-7.72,2.7-13.09,2.7
			c-5.86,0-10.42-1.62-13.65-4.88c-3.24-3.25-4.86-7.78-4.86-13.6c0-6.03,1.75-10.81,5.25-14.33s7.8-5.28,12.91-5.28
			c5.3,0,9.39,1.57,12.29,4.72c2.9,3.14,4.35,7.41,4.35,12.8V280.86z M886.13,273.98c0-5.2-2.1-7.8-6.31-7.8
			c-1.8,0-3.35,0.74-4.67,2.23c-1.31,1.49-2.11,3.35-2.39,5.57H886.13z"/>
		<path d="M955.56,295.83h-30.5v-50.86h29.33v9.33h-17.88v11.31h16.63v9.29h-16.63v11.63h19.05V295.83z"/>
		<path d="M998.05,259.51l-11.99,17.59l11.92,18.73h-12.91l-5.25-9.79c-0.43-0.78-0.93-1.88-1.52-3.3h-0.14
			c-0.35,0.99-0.84,2.06-1.46,3.19l-5.28,9.9h-12.88l12.27-18.09l-11.52-18.23h12.98l5.18,10.18c0.69,1.35,1.17,2.48,1.45,3.4h0.14
			c0.38-1.11,0.89-2.27,1.53-3.48l5.28-10.11H998.05z"/>
		<path d="M1030.98,294.52c-2.53,1.47-6.18,2.2-10.96,2.2c-5.58,0-10.1-1.69-13.55-5.07s-5.18-7.74-5.18-13.09
			c0-6.17,1.85-11.03,5.55-14.6c3.7-3.56,8.65-5.34,14.84-5.34c4.28,0,7.38,0.57,9.29,1.7v9.5c-2.34-1.75-4.95-2.62-7.84-2.62
			c-3.22,0-5.76,0.94-7.64,2.82c-1.88,1.88-2.82,4.47-2.82,7.78c0,3.22,0.9,5.74,2.7,7.57c1.8,1.83,4.27,2.75,7.41,2.75
			c2.79,0,5.52-0.87,8.19-2.62V294.52z"/>
		<path d="M1071.31,280.86h-23.69c0.38,5.27,3.7,7.91,9.97,7.91c4,0,7.51-0.95,10.53-2.84v8.09c-3.36,1.8-7.72,2.7-13.09,2.7
			c-5.86,0-10.42-1.62-13.65-4.88c-3.24-3.25-4.86-7.78-4.86-13.6c0-6.03,1.75-10.81,5.25-14.33c3.5-3.52,7.8-5.28,12.91-5.28
			c5.3,0,9.39,1.57,12.29,4.72c2.89,3.14,4.34,7.41,4.34,12.8V280.86z M1060.92,273.98c0-5.2-2.1-7.8-6.31-7.8
			c-1.8,0-3.35,0.74-4.66,2.23c-1.31,1.49-2.11,3.35-2.4,5.57H1060.92z"/>
		<path d="M1089.55,295.83h-11.21v-53.77h11.21V295.83z"/>
		<path d="M1110.55,295.83h-11.21v-53.77h11.21V295.83z"/>
		<path d="M1152.98,280.86h-23.69c0.38,5.27,3.7,7.91,9.96,7.91c4,0,7.51-0.95,10.54-2.84v8.09c-3.36,1.8-7.72,2.7-13.09,2.7
			c-5.86,0-10.41-1.62-13.65-4.88c-3.24-3.25-4.86-7.78-4.86-13.6c0-6.03,1.75-10.81,5.25-14.33c3.5-3.52,7.8-5.28,12.91-5.28
			c5.3,0,9.39,1.57,12.29,4.72c2.9,3.14,4.35,7.41,4.35,12.8V280.86z M1142.59,273.98c0-5.2-2.1-7.8-6.31-7.8
			c-1.8,0-3.35,0.74-4.66,2.23c-1.31,1.49-2.11,3.35-2.39,5.57H1142.59z"/>
		<path d="M1195.09,295.83h-11.17v-20.18c0-5.63-2.01-8.44-6.03-8.44c-1.94,0-3.53,0.74-4.79,2.23s-1.88,3.38-1.88,5.67v20.71
			h-11.21v-36.32h11.21v5.75h0.14c2.67-4.42,6.56-6.63,11.67-6.63c8.04,0,12.06,4.99,12.06,14.97V295.83z"/>
		<path d="M1231.84,294.52c-2.53,1.47-6.18,2.2-10.96,2.2c-5.58,0-10.1-1.69-13.55-5.07c-3.45-3.38-5.18-7.74-5.18-13.09
			c0-6.17,1.85-11.03,5.55-14.6c3.7-3.56,8.65-5.34,14.84-5.34c4.28,0,7.38,0.57,9.29,1.7v9.5c-2.34-1.75-4.95-2.62-7.84-2.62
			c-3.22,0-5.76,0.94-7.64,2.82c-1.88,1.88-2.82,4.47-2.82,7.78c0,3.22,0.9,5.74,2.7,7.57c1.8,1.83,4.27,2.75,7.41,2.75
			c2.79,0,5.52-0.87,8.19-2.62V294.52z"/>
		<path d="M1272.17,280.86h-23.69c0.38,5.27,3.7,7.91,9.97,7.91c4,0,7.5-0.95,10.53-2.84v8.09c-3.36,1.8-7.72,2.7-13.08,2.7
			c-5.86,0-10.42-1.62-13.66-4.88c-3.24-3.25-4.86-7.78-4.86-13.6c0-6.03,1.75-10.81,5.25-14.33c3.5-3.52,7.8-5.28,12.91-5.28
			c5.3,0,9.39,1.57,12.29,4.72c2.9,3.14,4.34,7.41,4.34,12.8V280.86z M1261.78,273.98c0-5.2-2.1-7.8-6.31-7.8
			c-1.8,0-3.35,0.74-4.67,2.23c-1.31,1.49-2.11,3.35-2.4,5.57H1261.78z"/>
		<path d="M1286.4,296.65c-1.89,0-3.45-0.57-4.68-1.72c-1.23-1.15-1.84-2.54-1.84-4.17c0-1.7,0.62-3.1,1.86-4.19
			c1.24-1.09,2.8-1.63,4.67-1.63c1.89,0,3.44,0.55,4.65,1.65c1.21,1.1,1.81,2.49,1.81,4.17c0,1.7-0.6,3.11-1.79,4.22
			C1289.87,296.09,1288.32,296.65,1286.4,296.65z M1292.22,244.97l-1.38,35.04h-9.08l-1.31-35.04H1292.22z"/>
	</g>
	<g>
		<path d="M397.63,133.88h47.29c8.28,0,14.55,1.5,18.81,4.51c4.26,3.01,6.39,7.42,6.39,13.24v9.08c0,3.95-1.47,7.12-4.42,9.52
			s-6.9,3.64-11.87,3.72c5.51,0.27,9.75,1.75,12.71,4.42c2.97,2.68,4.45,6.36,4.45,11.04v9.84c0,5.82-2.15,10.25-6.45,13.3
			s-10.57,4.57-18.81,4.57h-48.11V133.88z M415.38,150.76v49.45h27.83c3.79,0,6.46-0.68,8.03-2.05c1.56-1.37,2.34-3.67,2.34-6.91
			c0-3.24-0.77-5.52-2.31-6.83c-1.54-1.31-4.23-1.96-8.06-1.96h-19.39v-15.59h18.81c3.71,0,6.3-0.59,7.76-1.79
			c1.46-1.19,2.2-3.27,2.2-6.24c0-2.97-0.73-5.06-2.2-6.27c-1.46-1.21-4.05-1.82-7.76-1.82H415.38z"/>
		<path d="M487.54,133.88h17.75v57.48c0,3.28,0.85,5.76,2.55,7.44c1.7,1.68,4.21,2.52,7.53,2.52h19.92c3.32,0,5.83-0.84,7.53-2.52
			c1.7-1.68,2.55-4.16,2.55-7.44v-57.48h17.75v58.77c0,8.17-2.31,14.57-6.94,19.22c-4.63,4.65-11.03,6.97-19.19,6.97h-23.26
			c-8.16,0-14.57-2.32-19.22-6.97c-4.65-4.65-6.97-11.05-6.97-19.22V133.88z"/>
		<path d="M579.55,133.88H631c4.1,0,7.09,0.74,8.96,2.23c1.88,1.49,2.81,3.85,2.81,7.09v2.93c0,1.29-0.36,2.77-1.08,4.45
			c-0.72,1.68-1.69,3.18-2.9,4.51l-34.86,39.38c-0.82,0.86-1.37,1.53-1.64,2.02c-0.27,0.49-0.41,0.93-0.41,1.32
			c0,0.7,0.33,1.18,1,1.44c0.66,0.25,2.01,0.38,4.04,0.38h38.14v17.52h-58.83c-3.79,0-6.59-0.75-8.41-2.26
			c-1.82-1.5-2.72-3.84-2.72-7v-2.87c0-1.29,0.36-2.77,1.08-4.45c0.72-1.68,1.69-3.18,2.9-4.51L614,156.56
			c0.66-0.74,1.16-1.41,1.49-1.99s0.5-1.09,0.5-1.52c0-0.66-0.29-1.12-0.88-1.38c-0.59-0.25-1.97-0.38-4.16-0.38h-31.41V133.88z"/>
		<path d="M661.61,133.88h51.45c4.1,0,7.09,0.74,8.96,2.23c1.88,1.49,2.81,3.85,2.81,7.09v2.93c0,1.29-0.36,2.77-1.08,4.45
			c-0.72,1.68-1.69,3.18-2.9,4.51l-34.86,39.38c-0.82,0.86-1.37,1.53-1.64,2.02c-0.27,0.49-0.41,0.93-0.41,1.32
			c0,0.7,0.33,1.18,1,1.44c0.66,0.25,2.01,0.38,4.04,0.38h38.14v17.52h-58.83c-3.79,0-6.59-0.75-8.41-2.26
			c-1.82-1.5-2.72-3.84-2.72-7v-2.87c0-1.29,0.36-2.77,1.08-4.45c0.72-1.68,1.69-3.18,2.9-4.51l34.92-39.49
			c0.66-0.74,1.16-1.41,1.49-1.99s0.5-1.09,0.5-1.52c0-0.66-0.29-1.12-0.88-1.38c-0.59-0.25-1.97-0.38-4.16-0.38h-31.41V133.88z"/>
		<path d="M733.35,133.88h19.8l16.29,31.05c0.59,1.17,1.36,2.11,2.31,2.81s1.94,1.05,2.96,1.05c1.05,0,2.07-0.35,3.05-1.05
			s1.76-1.64,2.34-2.81l16.35-31.05h19.69l-19.34,36.8c-1.48,2.93-3.31,5.43-5.48,7.5c-2.17,2.07-4.74,3.77-7.71,5.1v33.87h-17.75
			v-33.87c-2.97-1.33-5.55-3.03-7.73-5.1c-2.19-2.07-4.02-4.57-5.51-7.5L733.35,133.88z"/>
		<path d="M824.25,133.88h47.29c8.28,0,14.55,1.5,18.81,4.51c4.26,3.01,6.39,7.42,6.39,13.24v9.08c0,3.95-1.47,7.12-4.42,9.52
			s-6.9,3.64-11.87,3.72c5.51,0.27,9.75,1.75,12.71,4.42c2.97,2.68,4.45,6.36,4.45,11.04v9.84c0,5.82-2.15,10.25-6.45,13.3
			s-10.57,4.57-18.81,4.57h-48.11V133.88z M842,150.76v49.45h27.83c3.79,0,6.46-0.68,8.03-2.05c1.56-1.37,2.34-3.67,2.34-6.91
			c0-3.24-0.77-5.52-2.31-6.83c-1.54-1.31-4.23-1.96-8.06-1.96h-19.39v-15.59h18.81c3.71,0,6.3-0.59,7.76-1.79
			c1.46-1.19,2.2-3.27,2.2-6.24c0-2.97-0.73-5.06-2.2-6.27c-1.46-1.21-4.05-1.82-7.76-1.82H842z"/>
		<path d="M914.16,133.88h46c8.67,0,15.08,1.49,19.22,4.48c4.14,2.99,6.21,7.61,6.21,13.86v6.62c0,4.8-0.9,8.64-2.7,11.51
			c-1.8,2.87-4.55,4.87-8.26,6.01c2.3,0.9,4.22,2.43,5.74,4.6s2.62,4.87,3.28,8.12l5.98,28.07h-18.69l-4.1-22.56
			c-0.51-3.08-1.55-5.56-3.13-7.41c-1.58-1.85-3.41-2.78-5.48-2.78h-17.87v-16.7h19.04c2.7,0,4.78-0.52,6.24-1.55
			c1.46-1.03,2.2-2.51,2.2-4.42v-4.45c0-1.91-0.73-3.39-2.2-4.42c-1.46-1.03-3.54-1.55-6.24-1.55h-27.48v65.86h-17.75V133.88z"/>
		<path d="M1055.51,147.54l23.03,69.61h-18.81l-20.86-64.51c-0.31-1.01-0.73-1.76-1.26-2.23s-1.2-0.7-2.02-0.7
			c-0.78,0-1.42,0.23-1.9,0.67c-0.49,0.45-0.89,1.18-1.2,2.2l-20.86,64.57h-18.87l22.91-69.61c1.8-5.35,4.27-9.25,7.41-11.69
			c3.14-2.44,7.31-3.66,12.51-3.66c5.19,0,9.44,1.28,12.74,3.84C1051.63,138.58,1054.02,142.42,1055.51,147.54z"/>
		<path d="M1085.41,133.88h17.75v83.26h-17.75V133.88z"/>
		<path d="M1164.77,151.4l12.48,44.12c0.66,2.34,1.36,3.9,2.08,4.66c0.72,0.76,1.75,1.14,3.08,1.14c1.44,0,2.55-0.45,3.31-1.35
			c0.76-0.9,1.14-2.21,1.14-3.93v-62.17h17.75v64.16c0,6.52-1.91,11.62-5.74,15.29c-3.83,3.67-9.16,5.51-16,5.51
			c-6.21,0-11.04-1.45-14.5-4.34c-3.46-2.89-6.18-7.85-8.17-14.88l-12.48-44.18c-0.67-2.3-1.36-3.84-2.08-4.6
			c-0.72-0.76-1.75-1.14-3.08-1.14c-1.49,0-2.6,0.43-3.34,1.29c-0.74,0.86-1.11,2.15-1.11,3.87v62.29h-17.75v-64.34
			c0-6.48,1.91-11.54,5.74-15.18c3.83-3.63,9.16-5.45,16-5.45c6.21,0,11.04,1.45,14.5,4.34
			C1160.06,139.41,1162.78,144.37,1164.77,151.4z"/>
		<path d="M1246.48,133.88h43.18v17.4h-43.54c-2.93,0-5.15,0.64-6.65,1.9c-1.5,1.27-2.26,3.16-2.26,5.65c0,2.46,0.75,4.32,2.26,5.57
			c1.5,1.25,3.72,1.88,6.65,1.88h18.69c8.98,0,16,2.25,21.04,6.74c5.04,4.49,7.56,10.72,7.56,18.69s-2.52,14.2-7.56,18.69
			c-5.04,4.49-12.05,6.74-21.04,6.74h-43.65v-17.52h44.06c3.4,0,5.97-0.66,7.71-1.99c1.74-1.33,2.61-3.3,2.61-5.92
			c0-2.66-0.87-4.64-2.61-5.95c-1.74-1.31-4.31-1.96-7.71-1.96h-18.75c-8.36,0-14.95-2.24-19.78-6.71
			c-4.83-4.47-7.24-10.56-7.24-18.25c0-7.73,2.41-13.83,7.24-18.28C1231.53,136.11,1238.12,133.88,1246.48,133.88z"/>
	</g>
	<g>
		<path class="st10" d="M328.07,345.11c-25.74,62.56-80.18-115.46-71.32-166.31c7.09-40.7,101.81-147,101.81-147
			S358.25,271.77,328.07,345.11z"/>
		<path class="st11" d="M348.75,28.21c45.06-6.03-71.97,117.35-120.34,136.33c-38.18,14.98-183.77,6.12-183.77,6.12
			S231.94,43.84,348.75,28.21z"/>
		<path class="st12" d="M43.43,183.9c-28.98-33.07,133.97-16.31,175.25,14.76c33.44,25.17,92.73,158.78,92.73,158.78
			S82.33,228.28,43.43,183.9z"/>
	</g>
</g>
<g id="Colours">
</g>
</svg>
