<?xml version="1.0" encoding="UTF-8"?>
<svg width="40px" height="45px" viewBox="0 0 40 45" version="1.1" xmlns="http://www.w3.org/2000/svg" xmlns:xlink="http://www.w3.org/1999/xlink">
    <!-- Generator: sketchtool 52.3 (67297) - http://www.bohemiancoding.com/sketch -->
    <title>C186BEFE-184C-4F14-B496-119223083E8B</title>
    <desc>Created with sketchtool.</desc>
    <g  stroke="none" stroke-width="1" fill="none" fill-rule="evenodd">
        <g  transform="translate(-1048.000000, -496.000000)" fill="#898B90">
            <g  transform="translate(1045.000000, 248.000000)">
                <g >
                    <g >
                        <g  transform="translate(3.000000, 245.000000)">
                            <g  transform="translate(0.000000, 3.000000)">
                                <path d="M6.48885965,14.8070175 L4.29096491,13.0610526 C3.66622807,13.8507895 3.10324561,14.6874561 2.60675439,15.5635088 L5.04745614,16.9501754 C5.47210526,16.1998246 5.95403509,15.4832456 6.48885965,14.8070175 Z" ></path>
                                <path d="M34.5253509,12.4154386 L38.9309649,8.00982456 L36.9464035,6.02526316 L32.5407895,10.4308772 C29.3419298,7.64938596 25.3250877,5.98385965 21.0965789,5.68561404 L21.0965789,2.80701754 L25.3071053,2.80701754 L25.3071053,0 L14.0790351,0 L14.0790351,2.80701754 L18.2895614,2.80701754 L18.2895614,5.68982456 C15.879386,5.84815789 13.5196491,6.45350877 11.3309649,7.47508772 L12.5267544,10.0168421 C14.7673684,8.95929825 17.2154386,8.41421053 19.6930702,8.42105263 C28.9838596,8.43201754 36.5066667,15.9725439 36.4957018,25.2633333 C36.4847368,34.5541228 28.9442105,42.0769298 19.6534211,42.0659649 C10.3626316,42.055 2.83982456,34.5144737 2.85078947,25.2236842 C2.85315789,23.1957895 3.22219298,21.185 3.94008772,19.2884211 L1.31552632,18.2933333 C-2.55833333,28.4369298 2.52429825,39.8002632 12.6678947,43.6741228 C22.8114912,47.5479825 34.1748246,42.4653509 38.0486842,32.3217544 C40.6368421,25.5444737 39.2825439,17.8926316 34.5253509,12.4154386 Z" ></path>
                                <path d="M10.2769298,11.2982456 L8.70640351,8.97122807 C7.87105263,9.53561404 7.08,10.1629825 6.34008772,10.8477193 L8.24885965,12.9122807 C8.88280702,12.3234211 9.56078947,11.7837719 10.2769298,11.2982456 Z" ></path>
                                <polygon  transform="translate(19.694839, 25.264466) rotate(135.000000) translate(-19.694839, -25.264466) " points="9.77208369 23.8609712 29.6175951 23.8609712 29.6175951 26.6679618 9.77208369 26.6679618"></polygon>
                                <rect  x="12.6755263" y="18.245614" width="2.80701754" height="2.80701754"></rect>
                                <rect  x="23.9035965" y="29.4736842" width="2.80701754" height="2.80701754"></rect>
                            </g>
                        </g>
                    </g>
                </g>
            </g>
        </g>
    </g>
</svg>
