<?xml version="1.0" encoding="UTF-8"?>
<svg width="45px" height="45px" viewBox="0 0 45 45" version="1.1" xmlns="http://www.w3.org/2000/svg" xmlns:xlink="http://www.w3.org/1999/xlink">
    <!-- Generator: sketchtool 52.3 (67297) - http://www.bohemiancoding.com/sketch -->
    <title>10C5D510-2500-44D1-8052-B06441F9F19E</title>
    <desc>Created with sketchtool.</desc>
    <g  stroke="none" stroke-width="1" fill="none" fill-rule="evenodd">
        <g  transform="translate(-1045.000000, -331.000000)" fill="#898B90">
            <g  transform="translate(1045.000000, 248.000000)">
                <g >
                    <g >
                        <g  transform="translate(0.000000, 80.000000)">
                            <g  transform="translate(0.000000, 3.000000)">
                                <g >
                                    <path d="M21.7133858,17.3270374 L33.3453543,20.029872 L37.9955906,7.78562008 L35.3480315,6.77790354 L34.1617323,9.89601378 L30.9089764,4.39963583 C28.4151083,0.175216535 22.9688681,-1.22757874 18.7444488,1.26628937 C17.6202461,1.92995079 16.6561122,2.83331693 15.9207874,3.91207677 L18.3033071,5.44987205 C19.6334646,3.5544685 21.9258071,2.5803248 24.2135433,2.93837598 C24.4119685,2.97097441 24.5962205,3.04609252 24.7889764,3.09711614 L14.9598425,17.1768012 L17.284252,18.7996358 L23.1831496,10.3481398 L26.0773228,15.4249902 L22.3540157,14.5604232 L21.7133858,17.3270374 Z M24.9732283,7.77995079 L27.2933858,4.45632874 C27.7509154,4.85654528 28.1456398,5.3232874 28.4640945,5.84105315 L32.8705512,13.2947539 L31.5751181,16.7076673 L29.8374803,16.3037303 L24.9732283,7.77995079 Z"  fill-rule="nonzero"></path>
                                    <polygon  transform="translate(14.651048, 8.212442) rotate(34.916920) translate(-14.651048, -8.212442) " points="13.2336953 6.79509003 16.0684002 6.79509003 16.0684002 9.62979488 13.2336953 9.62979488"></polygon>
                                    <polygon  transform="translate(11.405037, 12.861358) rotate(34.916920) translate(-11.405037, -12.861358) " points="9.98768441 11.4440052 12.8223893 11.4440052 12.8223893 14.2787101 9.98768441 14.2787101"></polygon>
                                    <polygon  transform="translate(38.447754, 21.109520) rotate(144.618848) translate(-38.447754, -21.109520) " points="37.0304628 19.6929378 39.8650448 19.6929378 39.8650448 22.5261026 37.0304628 22.5261026"></polygon>
                                    <path d="M44.8297441,29.0365157 C44.5913681,27.7889173 44.0883071,26.6069587 43.3544882,25.570187 L43.3530709,25.570187 L42.0647244,23.7545965 L39.7544882,25.3958563 L41.0385827,27.2043602 C42.3746752,29.0950689 42.5187106,31.5811417 41.4099213,33.6134941 C41.3092913,33.7934941 41.1746457,33.9437303 41.0584252,34.1109744 L33.080315,22.8361713 L30.7658268,24.4760138 L34.779685,30.1453051 L29.0225197,31.1530217 L31.096063,27.9442028 L28.7135433,26.4078248 L22.2377953,36.4410531 L32.1888189,44.9577461 L34.0313386,42.8034154 L31.4929134,40.6320768 L37.7688189,39.4330217 C42.5895768,38.511939 45.7508268,33.8572736 44.8297441,29.0365157 Z M37.2401575,36.6522343 L28.7362205,38.2764862 L25.9625197,35.9024705 L26.9305512,34.4029429 L36.5938583,32.7134941 L38.9366929,36.0243602 C38.406437,36.3188976 37.8343701,36.5306102 37.2401575,36.6522343 Z"  fill-rule="nonzero"></path>
                                    <rect  x="16.6393701" y="41.045935" width="2.83464567" height="2.83464567"></rect>
                                    <path d="M13.096063,28.9618406 L14.5133858,32.5051476 L17.1453543,31.4492421 L12.7034646,20.3700295 L0,23.5646752 L0.693070866,26.3128642 L3.93307087,25.4979035 L1.28125984,31.3089272 C-0.757293307,35.7691535 1.20587598,41.0375197 5.66610236,43.0760728 C6.40629921,43.4143701 7.18954724,43.6492913 7.99370079,43.7742815 L10.9700787,43.8805807 L13.8047244,43.8805807 L13.8047244,41.045935 L11.0168504,41.045935 L8.34519685,40.958061 C6.42197835,40.6321654 4.77425197,39.3982087 3.92031496,37.6443602 C3.79931102,37.3686909 3.69885827,37.0844291 3.61984252,36.7939665 L19.4740157,36.7939665 L19.4740157,33.9593209 L10.7192126,33.9593209 L13.096063,28.9618406 Z M3.42141732,33.9593209 C3.50371063,33.452628 3.65084646,32.9586024 3.85937008,32.4895571 L7.45086614,24.6134941 L10.9941732,23.721998 L11.6574803,25.3788484 L7.58125984,33.9593209 L3.42141732,33.9593209 Z"  fill-rule="nonzero"></path>
                                </g>
                            </g>
                        </g>
                    </g>
                </g>
            </g>
        </g>
    </g>
</svg>
