<?xml version="1.0" encoding="UTF-8"?>
<svg width="47px" height="45px" viewBox="0 0 47 45" version="1.1" xmlns="http://www.w3.org/2000/svg" xmlns:xlink="http://www.w3.org/1999/xlink">
    <!-- Generator: sketchtool 52.3 (67297) - http://www.bohemiancoding.com/sketch -->
    <title>8A77C0F1-17B0-4683-8145-04D9523A540A</title>
    <desc>Created with sketchtool.</desc>
    <g  stroke="none" stroke-width="1" fill="none" fill-rule="evenodd">
        <g  transform="translate(-1045.000000, -411.000000)" fill="#898B90">
            <g  transform="translate(1045.000000, 248.000000)">
                <g >
                    <g >
                        <g  transform="translate(0.000000, 160.000000)">
                            <g  transform="translate(0.000000, 3.000000)">
                                <polygon  transform="translate(14.198918, 6.441915) rotate(62.586773) translate(-14.198918, -6.441915) " points="12.7143967 4.95739415 15.6834383 4.95739415 15.6834383 7.92643581 12.7143967 7.92643581"></polygon>
                                <path d="M36.5106804,17.3275052 L46.531299,12.1316289 L23.2656495,0.0682886598 L17.4759588,3.07595876 L18.8432165,5.71101031 L23.2656495,3.41146392 L40.0824742,12.1316289 L23.2656495,20.8517938 L6.44882474,12.1316289 L10.9291546,9.8083299 L9.56189691,7.17327835 L-1.13686838e-13,12.1316289 L10.0206186,17.3275052 L-1.13686838e-13,22.5233814 L10.0206186,27.7192577 L-1.13686838e-13,32.915134 L23.2656495,44.9784742 L46.531299,32.915134 L36.5106804,27.7192577 L46.531299,22.5233814 L36.5106804,17.3275052 Z M40.0824742,32.915134 L23.2656495,41.635299 L6.44882474,32.915134 L13.2450309,29.3908454 L23.2656495,34.5867216 L33.286268,29.3908454 L40.0824742,32.915134 Z M23.2656495,31.2435464 L6.44882474,22.5233814 L13.2450309,18.9990928 L23.2656495,24.1949691 L33.286268,18.9990928 L40.0824742,22.5233814 L23.2656495,31.2435464 Z"  fill-rule="nonzero"></path>
                            </g>
                        </g>
                    </g>
                </g>
            </g>
        </g>
    </g>
</svg>
