<?xml version="1.0" encoding="UTF-8"?>
<svg width="45px" height="45px" viewBox="0 0 45 45" version="1.1" xmlns="http://www.w3.org/2000/svg" xmlns:xlink="http://www.w3.org/1999/xlink">
    <!-- Generator: sketchtool 52.3 (67297) - http://www.bohemiancoding.com/sketch -->
    <title>EFC83261-889F-4C35-999E-6983C0771C4B</title>
    <desc>Created with sketchtool.</desc>
    <g  stroke="none" stroke-width="1" fill="none" fill-rule="evenodd">
        <g  transform="translate(-1048.000000, -573.000000)" fill="#898B90">
            <g  transform="translate(1045.000000, 248.000000)">
                <g >
                    <g >
                        <g  transform="translate(3.000000, 325.000000)">
                            <g >
                                <g >
                                    <path d="M2.8125,11.25 L11.25,11.25 L11.25,2.8125 L30.9375,2.8125 L30.9375,11.25 L33.75,11.25 L33.75,0 L9.2615625,0 L0,9.2615625 L0,45 L19.6875,45 L19.6875,42.1875 L2.8125,42.1875 L2.8125,11.25 Z M8.4375,4.8009375 L8.4375,8.4375 L4.8009375,8.4375 L8.4375,4.8009375 Z"  fill-rule="nonzero"></path>
                                    <rect  x="30.9375" y="14.0625" width="2.8125" height="2.8125"></rect>
                                    <rect  x="30.9375" y="19.6875" width="2.8125" height="2.8125"></rect>
                                    <path d="M28.125,14.0625 L5.625,14.0625 L5.625,22.5 L28.125,22.5 L28.125,14.0625 Z M25.3125,19.6875 L8.4375,19.6875 L8.4375,16.875 L25.3125,16.875 L25.3125,19.6875 Z"  fill-rule="nonzero"></path>
                                    <rect  x="5.625" y="25.3125" width="22.5" height="2.8125"></rect>
                                    <rect  x="5.625" y="30.9375" width="18.28125" height="2.8125"></rect>
                                    <path d="M44.0339062,27.6848438 C44.0341699,25.3548633 42.1455762,23.4658301 39.8156836,23.4655664 C38.6968359,23.4653906 37.6237793,23.9097656 36.8325,24.7007813 L22.5,39.0346875 L22.5,45 L28.4667188,45 L42.800625,30.6675 C43.5924316,29.8770996 44.0362793,28.8036035 44.0339062,27.6848438 Z M27.3023437,42.1875 L25.3125,42.1875 L25.3125,40.1990625 L35.8382813,29.671875 L37.828125,31.6617188 L27.3023437,42.1875 Z M40.8121875,28.6790625 L40.8107812,28.6790625 L39.8165625,29.6732813 L37.828125,27.6848438 L38.8223438,26.6892188 C39.3718359,26.1397266 40.2626953,26.1397266 40.8121875,26.6892188 C41.3616797,27.2387109 41.3616797,28.1295703 40.8121875,28.6790625 Z"  fill-rule="nonzero"></path>
                                    <rect  x="42.1875" y="42.1875" width="2.8125" height="2.8125"></rect>
                                    <rect  x="33.75" y="42.1875" width="5.625" height="2.8125"></rect>
                                </g>
                            </g>
                        </g>
                    </g>
                </g>
            </g>
        </g>
    </g>
</svg>
