<?xml version="1.0" encoding="UTF-8"?>
<svg width="45px" height="45px" viewBox="0 0 45 45" version="1.1" xmlns="http://www.w3.org/2000/svg" xmlns:xlink="http://www.w3.org/1999/xlink">
    <!-- Generator: sketchtool 52.3 (67297) - http://www.bohemiancoding.com/sketch -->
    <title>C7FC508A-0202-4E79-9A85-C413E0EBED34</title>
    <desc>Created with sketchtool.</desc>
    <g  stroke="none" stroke-width="1" fill="none" fill-rule="evenodd">
        <g  transform="translate(-1045.000000, -248.000000)" fill="#898B90">
            <g  transform="translate(1045.000000, 248.000000)">
                <g >
                    <g >
                        <g >
                            <g >
                                <path d="M14.0352632,11.2283333 C14.0352632,6.57754386 17.8055263,2.8072807 22.4563158,2.8072807 C27.1071053,2.8072807 30.8773684,6.57754386 30.8773684,11.2283333 L30.8773684,19.649386 L33.684386,19.649386 L33.684386,21.0528947 C33.684386,21.8280702 33.0560526,22.4564035 32.2808772,22.4564035 L28.0703509,22.4564035 L28.0703509,25.2634211 L32.2808772,25.2634211 C34.6063158,25.2634211 36.4914035,23.3783333 36.4914035,21.0528947 L36.4914035,19.3911404 C38.1677193,18.7985088 39.2910526,17.2168421 39.2984211,15.4388596 L39.2984211,14.0353509 C39.2984211,11.7099123 37.4133333,9.82482456 35.0878947,9.82482456 L33.5875439,9.82482456 C32.8173684,3.6772807 27.2092982,-0.682017544 21.0617544,0.088245614 C15.9717544,0.725964912 11.962807,4.73491228 11.3250877,9.82491228 L9.82473684,9.82491228 C7.49929825,9.82491228 5.61421053,11.71 5.61421053,14.0354386 L5.61421053,15.4389474 C5.61421053,17.764386 7.49929825,19.6494737 9.82473684,19.6494737 L11.2282456,19.6494737 L11.2282456,20.1168421 L15.4387719,25.7308772 L15.4387719,28.4915789 L0.000175438596,34.105614 L0.000175438596,44.9126316 L5.61421053,44.9126316 L5.61421053,42.105614 L2.80719298,42.105614 L2.80719298,36.0705263 L18.2457895,30.4564912 L18.2457895,24.7961404 L14.0352632,19.1821053 L14.0352632,11.2283333 Z M33.684386,12.6318421 L35.0878947,12.6318421 C35.8630702,12.6318421 36.4914035,13.2601754 36.4914035,14.0353509 L36.4914035,15.4388596 C36.4914035,16.2140351 35.8630702,16.8423684 35.0878947,16.8423684 L33.684386,16.8423684 L33.684386,12.6318421 Z M11.2282456,16.8423684 L9.82473684,16.8423684 C9.0495614,16.8423684 8.42122807,16.2140351 8.42122807,15.4388596 L8.42122807,14.0353509 C8.42122807,13.2601754 9.0495614,12.6318421 9.82473684,12.6318421 L11.2282456,12.6318421 L11.2282456,16.8423684 Z"  fill-rule="nonzero"></path>
                                <polygon  points="28.5503509 28.1560526 27.5903509 30.7918421 42.1054386 36.0704386 42.1054386 42.1055263 19.6492982 42.1055263 19.6492982 44.9125439 44.9124561 44.9125439 44.9124561 34.1055263"></polygon>
                                <rect  x="8.42122807" y="42.1055263" width="2.80701754" height="2.80701754"></rect>
                                <rect  x="14.0352632" y="42.1055263" width="2.80701754" height="2.80701754"></rect>
                                <rect  x="22.4563158" y="22.4564035" width="2.80701754" height="2.80701754"></rect>
                            </g>
                        </g>
                    </g>
                </g>
            </g>
        </g>
    </g>
</svg>
